<!-- Generator: Gravit.io --><svg xmlns="http://www.w3.org/2000/svg" style="isolation:isolate" viewBox="0 0 1600 1600" width="1600" height="1600" xmlns:xlink="http://www.w3.org/1999/xlink"><defs><clipPath id="_clipPath_PSzFXa4bZVYztLmYMDki9TEQP4Dcb4Eu"><rect width="1600" height="1600"/></clipPath></defs><g clip-path="url(#_clipPath_PSzFXa4bZVYztLmYMDki9TEQP4Dcb4Eu)"><g><g><g><g><rect fill="rgb(235, 235, 235)" transform="matrix(1, 0, 0, 1, 0, 0)" x="1166.88" y="353.564" width="121.005" height="42.414"/><rect fill="rgb(255, 136, 173)" transform="matrix(1, 0, 0, 1, 0, 0)" x="278.677" y="353.564" width="1042.89" height="217.061"/><rect fill="rgb(255, 136, 173)" transform="matrix(1, 0, 0, 1, 0, 0)" x="312.359" y="316.14" width="975.527" height="41.167"/><rect fill="rgb(255, 136, 173)" transform="matrix(0.664, -0.747, 0.747, 0.664, -156.819, 353.001)" x="289.176" y="325.301" width="51.058" height="51.678"/><rect fill="rgb(255, 136, 173)" transform="matrix(0.664, 0.747, -0.747, 0.664, 694.597, -842.282)" x="1259.77" y="326.548" width="51.058" height="51.678"/><rect fill="rgb(215, 58, 108)" transform="matrix(1, 0, 0, 1, 0, 0)" x="312.359" y="570.625" width="975.527" height="24.95"/><rect fill="rgb(101, 227, 51)" transform="matrix(1, 0, 0, 1, 0, 0)" x="1213.04" y="352.387" width="74.849" height="35"/></g></g><g><g><rect fill="rgb(235, 235, 235)" transform="matrix(1, 0, 0, 1, 0, 0)" x="1166.88" y="632.999" width="121.005" height="42.414"/><rect fill="rgb(255, 136, 173)" transform="matrix(1, 0, 0, 1, 0, 0)" x="278.677" y="632.999" width="1042.89" height="217.061"/><rect fill="rgb(255, 136, 173)" transform="matrix(1, 0, 0, 1, 0, 0)" x="312.359" y="595.575" width="975.527" height="41.167"/><rect fill="rgb(255, 136, 173)" transform="matrix(0.664, -0.747, 0.747, 0.664, -365.644, 446.76)" x="289.176" y="604.736" width="51.058" height="51.678"/><rect fill="rgb(255, 136, 173)" transform="matrix(0.664, 0.747, -0.747, 0.664, 903.423, -748.524)" x="1259.77" y="605.983" width="51.058" height="51.678"/><rect fill="rgb(215, 58, 108)" transform="matrix(1, 0, 0, 1, 0, 0)" x="312.359" y="850.06" width="975.527" height="24.95"/><rect fill="rgb(101, 227, 51)" transform="matrix(1, 0, 0, 1, 0, 0)" x="1213.04" y="631.822" width="74.849" height="35"/></g></g><g><g><rect fill="rgb(235, 235, 235)" transform="matrix(1, 0, 0, 1, 0, 0)" x="1166.88" y="912.434" width="121.005" height="42.414"/><rect fill="rgb(255, 136, 173)" transform="matrix(1, 0, 0, 1, 0, 0)" x="278.677" y="912.434" width="1042.89" height="217.061"/><rect fill="rgb(255, 136, 173)" transform="matrix(1, 0, 0, 1, 0, 0)" x="312.359" y="875.009" width="975.527" height="41.167"/><rect fill="rgb(255, 136, 173)" transform="matrix(0.664, -0.747, 0.747, 0.664, -574.47, 540.518)" x="289.176" y="884.171" width="51.058" height="51.678"/><rect fill="rgb(255, 136, 173)" transform="matrix(0.664, 0.747, -0.747, 0.664, 1112.25, -654.766)" x="1259.77" y="885.418" width="51.058" height="51.678"/><rect fill="rgb(215, 58, 108)" transform="matrix(1, 0, 0, 1, 0, 0)" x="312.359" y="1129.49" width="975.527" height="24.95"/><rect fill="rgb(101, 227, 51)" transform="matrix(1, 0, 0, 1, 0, 0)" x="1213.04" y="911.257" width="74.849" height="35"/></g></g><rect fill="rgb(255, 136, 173)" transform="matrix(1, 0, 0, 1, 0, 0)" x="17.832" y="1154.44" width="1564.34" height="219.556"/><path fill="rgb(235, 235, 235)" fill-rule="evenodd" d="M 690.517 739.343 L 515.891 913.969 L 625.374 1023.45 L 800 848.826 L 974.626 1023.45 L 1084.11 913.969 L 909.483 739.343 L 1084.11 564.717 L 974.626 455.233 L 800 629.859 L 625.374 455.233 L 515.891 564.717 L 690.517 739.343 Z"/></g></g></g></svg>