<!-- Generator: Gravit.io --><svg xmlns="http://www.w3.org/2000/svg" style="isolation:isolate" viewBox="0 0 1600 1600" width="1600" height="1600" xmlns:xlink="http://www.w3.org/1999/xlink"><defs><clipPath id="_clipPath_Hayoc01HkGveUgNMvOkYnyUU3VLylqnK"><rect width="1600" height="1600"/></clipPath></defs><g clip-path="url(#_clipPath_Hayoc01HkGveUgNMvOkYnyUU3VLylqnK)"><g><g><g><g><rect fill="rgb(235, 235, 235)" transform="matrix(1, 0, 0, 1, 0, 0)" x="1094.1" y="194.5" width="97" height="34"/><rect fill="rgb(255, 136, 173)" transform="matrix(1, 0, 0, 1, 0, 0)" x="382.098" y="194.5" width="836" height="174"/><rect fill="rgb(255, 136, 173)" transform="matrix(1, 0, 0, 1, 0, 0)" x="409.098" y="164.5" width="782" height="33"/><rect fill="rgb(255, 136, 173)" transform="matrix(0.664, -0.747, 0.747, 0.664, -6.005, 371.739)" x="390.514" y="171.844" width="40.929" height="41.426"/><rect fill="rgb(255, 136, 173)" transform="matrix(0.664, 0.747, -0.747, 0.664, 543.598, -823.628)" x="1168.56" y="172.844" width="40.929" height="41.426"/><rect fill="rgb(215, 58, 108)" transform="matrix(1, 0, 0, 1, 0, 0)" x="409.098" y="368.5" width="782" height="20"/><rect fill="rgb(101, 227, 51)" transform="matrix(1, 0, 0, 1, 0, 0)" x="1131.1" y="193.557" width="60" height="28.057"/></g></g><g><g><rect fill="rgb(235, 235, 235)" transform="matrix(1, 0, 0, 1, 0, 0)" x="1094.1" y="418.5" width="97" height="34"/><rect fill="rgb(255, 136, 173)" transform="matrix(1, 0, 0, 1, 0, 0)" x="382.098" y="418.5" width="836" height="174"/><rect fill="rgb(255, 136, 173)" transform="matrix(1, 0, 0, 1, 0, 0)" x="409.098" y="388.5" width="782" height="33"/><rect fill="rgb(255, 136, 173)" transform="matrix(0.664, -0.747, 0.747, 0.664, -173.403, 446.897)" x="390.514" y="395.844" width="40.929" height="41.426"/><rect fill="rgb(255, 136, 173)" transform="matrix(0.664, 0.747, -0.747, 0.664, 710.996, -748.47)" x="1168.56" y="396.844" width="40.929" height="41.426"/><rect fill="rgb(215, 58, 108)" transform="matrix(1, 0, 0, 1, 0, 0)" x="409.098" y="592.5" width="782" height="20"/><rect fill="rgb(101, 227, 51)" transform="matrix(1, 0, 0, 1, 0, 0)" x="1131.1" y="417.557" width="60" height="28.057"/></g></g><g><g><rect fill="rgb(235, 235, 235)" transform="matrix(1, 0, 0, 1, 0, 0)" x="1094.1" y="642.5" width="97" height="34"/><rect fill="rgb(255, 136, 173)" transform="matrix(1, 0, 0, 1, 0, 0)" x="382.098" y="642.5" width="836" height="174"/><rect fill="rgb(255, 136, 173)" transform="matrix(1, 0, 0, 1, 0, 0)" x="409.098" y="612.5" width="782" height="33"/><rect fill="rgb(255, 136, 173)" transform="matrix(0.664, -0.747, 0.747, 0.664, -340.802, 522.055)" x="390.514" y="619.844" width="40.929" height="41.426"/><rect fill="rgb(255, 136, 173)" transform="matrix(0.664, 0.747, -0.747, 0.664, 878.395, -673.311)" x="1168.56" y="620.844" width="40.929" height="41.426"/><rect fill="rgb(215, 58, 108)" transform="matrix(1, 0, 0, 1, 0, 0)" x="409.098" y="816.5" width="782" height="20"/><rect fill="rgb(101, 227, 51)" transform="matrix(1, 0, 0, 1, 0, 0)" x="1131.1" y="641.557" width="60" height="28.057"/></g></g><rect fill="rgb(255, 136, 173)" transform="matrix(1, 0, 0, 1, 0, 0)" x="173" y="836.5" width="1254" height="176"/><path fill="rgb(235, 235, 235)" fill-rule="evenodd" d="M 712.236 503.747 L 572.253 643.73 L 660.017 731.494 L 800 591.511 L 939.983 731.494 L 1027.75 643.73 L 887.764 503.747 L 1027.75 363.764 L 939.983 276 L 800 415.983 L 660.017 276 L 572.253 363.764 L 712.236 503.747 Z"/></g><g><g transform="matrix(1.22, 0, 0, 1.22, 512.605, 1257.11)"><text style="font-family:'League Spartan';font-weight:400;font-size:150px;font-style:normal;fill:#6a6a6a;stroke:none;" transform="matrix(1, 0, 0, 1, 0.05, 135)">DRIVE</text></g><g><g transform="matrix(1.22, 0, 0, 1.22, 339.314, 1054.38)"><text style="font-family:'League Spartan';font-weight:400;font-size:150px;font-style:normal;fill:#6a6a6a;stroke:none;" transform="matrix(1, 0, 0, 1, 3.45, 135)">CH</text><text style="font-family:'League Spartan';font-weight:400;font-size:150px;font-style:normal;fill:#1212db;stroke:none;" transform="matrix(1, 0, 0, 1, 230.7, 135)">O</text><text style="font-family:'League Spartan';font-weight:400;font-size:150px;font-style:normal;fill:#6a6a6a;stroke:none;" transform="matrix(1, 0, 0, 1, 362.25, 135)">PPER</text></g><ellipse fill="rgb(18, 18, 219)" cx="714.117" cy="1143.84" rx="53.5433" ry="53.467" vector-effect="non-scaling-stroke"/><ellipse fill="rgb(235, 235, 235)" cx="679.795" cy="1108.07" rx="19.2207" ry="17.6952" vector-effect="non-scaling-stroke"/></g></g></g></g></svg>